# xmcd CD database file
#
# Track frame offsets:
#	150
#	24551
#	37454
#	51346
#	72896
#	91361
#	111100
#	131958
#	151464
#	164285
#	176541
#	201804
#	215128
#
# Disc length: 3032 seconds
#
# Revision: 0
# Processed by: cddbd v1.5.1PL0 Copyright (c) Steve Scherf et al.
# Submitted via: CDex 1.51
#
DISCID=c50bd60d
DTITLE=Various Artist - Simply Salsa (Latin Cool)
DYEAR=2004
DGENRE=Salsa
TTITLE0=Ritmo Alegria - De Verdad
TTITLE1=Celia Cruz - Baila Yemaya
TTITLE2=Conjunto Casino - Mambo Infierno
TTITLE3=Ritmo Alegria - Pancho Fantastia
TTITLE4=Ritmo Alegria - Bongo
TTITLE5=Ritmo Alegria - 537 C.U.B.A.
TTITLE6=Ritmo Alegria - El Muñeco
TTITLE7=Ritmo Alegria - Marchando Bien
TTITLE8=Yayo 'El Indio' - La Bataola
TTITLE9=Cuban All Stars - La Novia Panchanguera
TTITLE10=Ritmo Alegria - Vino Anejo
TTITLE11=La Sonora Matancera Y Bobby Capo - Asi Son Los Quereres
TTITLE12=Celia Cruz - La Sopa En Botella
EXTD=YEAR: 2004
EXTT0=
EXTT1=
EXTT2=
EXTT3=
EXTT4=
EXTT5=
EXTT6=
EXTT7=
EXTT8=
EXTT9=
EXTT10=
EXTT11=
EXTT12=
PLAYORDER=
